<?xml version="1.0" ?><svg enable-background="new 0 0 515.91 728.5" height="512" id="Layer_1" version="1.1" viewBox="0 0 512.00003 512" width="512" xml:space="preserve" xmlns="http://www.w3.org/2000/svg" xmlns:cc="http://creativecommons.org/ns#" xmlns:dc="http://purl.org/dc/elements/1.1/" xmlns:inkscape="http://www.inkscape.org/namespaces/inkscape" xmlns:rdf="http://www.w3.org/1999/02/22-rdf-syntax-ns#" xmlns:sodipodi="http://sodipodi.sourceforge.net/DTD/sodipodi-0.dtd" xmlns:svg="http://www.w3.org/2000/svg"><defs id="defs7"/><g id="g7185"><path d="m -733.62329,72.267944 a 369.02136,369.02136 0 1 1 -738.04271,0 369.02136,369.02136 0 1 1 738.04271,0 z" id="path5112" style="fill:#46af52;fill-opacity:1;fill-rule:nonzero;stroke:none" transform="matrix(0.69372682,0,0,0.69372682,1020.9342,205.86579)"/><path d="M 255.99991,32.000091 C 132.34081,32.000091 32.0001,132.34079 32.0001,256 c 0,123.65921 100.34071,223.99991 223.99981,223.99991 123.65921,0 224.00002,-100.3407 224.00002,-223.99991 0,-123.65921 -100.34081,-223.999909 -224.00002,-223.999909 z m 0,8.8462 c 118.87531,0 215.12312,96.278499 215.12312,215.153709 0,80.8591 -44.53791,151.24421 -110.43881,188.00321 2.1176,-29.4757 3.8474,-62.1498 5.877,-91.0937 24.3343,-23.61841 43.3612,-43.32811 68.10601,-67.06521 7.9224,-8.5746 6.1822,-20.515 -0.9488,-27.7016 -5.6788,-5.4119 -11.80901,-9.167 -18.24321,-8.9687 -3.8609,0.119 -7.8175,1.6828 -11.8765,5.1119 -25.1391,24.9349 -51.5199,51.3103 -74.7177,74.1667 -3.0883,3.0216 -5.0407,7.1747 -5.4179,11.4785 -3.1717,37.14131 -5.2032,81.62691 -8.0809,117.75441 -0.1379,1.7053 -0.024,3.4175 0.3368,5.0813 -9.9561,2.8693 -20.2075,5.0136 -30.7013,6.4279 0.3746,-1.823 0.5186,-3.6694 0.3673,-5.5403 -2.9045,-36.4647 -1.0841,-97.8338 -2.9079,-141.96651 0.084,-1.5525 0.1409,-3.1163 0.2449,-4.5609 28.5075,-27.6688 63.8804,-68.0301 92.869,-95.8381 9.2814,-10.0454 8.4641,-25.3403 -1.5304,-34.9865 -6.1459,-5.9321 -12.2005,-9.3664 -18.7024,-9.2442 -5.0573,0.096 -10.3946,2.352 -16.1924,7.2545 -28.7465,27.654 -56.4009,58.4404 -82.4006,85.584 -26.00631,-27.1493 -53.70671,-57.9218 -82.46181,-85.584 -5.7979,-4.9025 -10.9386,-6.9693 -15.8864,-6.9483 -6.3614,0.026 -13.6789,3.9263 -19.0084,8.938 -9.1532,7.5423 -10.7813,24.9413 -1.4998,34.9865 28.9887,27.808 64.3614,68.1693 92.8689,95.8381 0.1052,1.4598 0.1905,3.0525 0.2756,4.6221 -1.8203,44.12931 -0.036,105.45331 -2.9385,141.90531 -0.1579,1.9521 -0.01,3.8893 0.3979,5.7852 -11.0319,-1.4043 -21.7883,-3.6646 -32.2318,-6.6728 0.371,-1.6627 0.5056,-3.3734 0.3673,-5.0813 -2.8777,-36.1275 -4.9397,-80.6131 -8.1115,-117.75441 -0.3771,-4.3038 -2.3295,-8.4569 -5.4178,-11.4785 -23.1978,-22.8564 -49.5479,-49.2318 -74.6871,-74.1667 -4.0589,-3.4291 -8.0466,-4.9927 -11.907009,-5.1119 -0.4025,-0.015 -0.7941,-0.019 -1.1938,0 -5.994801,0.2667 -11.725501,3.8949 -17.049401,8.9687 -7.131101,7.1866 -8.871301,19.127 -0.9489,27.7016 24.74481,23.7368 43.80211,43.4468 68.13661,67.06521 2.0304,28.9546 3.7584,61.6404 5.877,91.1243 C 85.4195,407.28211 40.846197,336.8784 40.846197,256 c 0,-118.87521 96.278613,-215.153709 215.153713,-215.153709 z m 0,91.001799 c -20.3763,0 -36.8843,16.509 -36.8843,36.8843 0,20.37571 16.508,36.88451 36.8843,36.88451 20.37661,0 36.91511,-16.5089 36.91511,-36.88451 0,-20.3754 -16.5387,-36.8843 -36.91511,-36.8843 z" id="path10406" style="font-size:medium;font-style:normal;font-variant:normal;font-weight:normal;font-stretch:normal;text-indent:0;text-align:start;text-decoration:none;line-height:normal;letter-spacing:normal;word-spacing:normal;text-transform:none;direction:ltr;block-progression:tb;writing-mode:lr-tb;text-anchor:start;baseline-shift:baseline;color:#000000;fill:#ffffff;fill-opacity:1;fill-rule:nonzero;stroke:none;stroke-width:24.00000191;marker:none;visibility:visible;display:inline;overflow:visible;enable-background:accumulate;font-family:Sans;-inkscape-font-specification:Sans"/></g></svg>