<?xml version="1.0" encoding="UTF-8" standalone="no"?>
<!-- Created with Inkscape (http://www.inkscape.org/) -->

<svg
   xmlns:dc="http://purl.org/dc/elements/1.1/"
   xmlns:cc="http://creativecommons.org/ns#"
   xmlns:rdf="http://www.w3.org/1999/02/22-rdf-syntax-ns#"
   xmlns:svg="http://www.w3.org/2000/svg"
   xmlns="http://www.w3.org/2000/svg"
   xmlns:sodipodi="http://sodipodi.sourceforge.net/DTD/sodipodi-0.dtd"
   xmlns:inkscape="http://www.inkscape.org/namespaces/inkscape"
   width="300px"
   height="300px"
   viewBox="0 0 300 300"
   version="1.1"
   id="SVGRoot"
   inkscape:version="0.92.3 (2405546, 2018-03-11)"
   sodipodi:docname="lubuntu-logo-alpha.svg">
  <sodipodi:namedview
     id="base"
     pagecolor="#ffffff"
     bordercolor="#666666"
     borderopacity="1.0"
     inkscape:pageopacity="0.0"
     inkscape:pageshadow="2"
     inkscape:zoom="2"
     inkscape:cx="132.1782"
     inkscape:cy="143.80056"
     inkscape:document-units="px"
     inkscape:current-layer="layer1"
     showgrid="false"
     inkscape:window-width="1920"
     inkscape:window-height="1029"
     inkscape:window-x="0"
     inkscape:window-y="0"
     inkscape:window-maximized="1"
     showguides="true"
     inkscape:guide-bbox="true">
    <inkscape:grid
       type="xygrid"
       id="grid1431" />
    <sodipodi:guide
       position="302,266"
       orientation="0,1"
       id="guide1491"
       inkscape:locked="false" />
    <sodipodi:guide
       position="190,230"
       orientation="1,0"
       id="guide1493"
       inkscape:locked="false" />
  </sodipodi:namedview>
  <defs
     id="defs815" />
  <metadata
     id="metadata818">
    <rdf:RDF>
      <cc:Work
         rdf:about="">
        <dc:format>image/svg+xml</dc:format>
        <dc:type
           rdf:resource="http://purl.org/dc/dcmitype/StillImage" />
        <dc:title></dc:title>
      </cc:Work>
    </rdf:RDF>
  </metadata>
  <g
     id="layer1"
     inkscape:groupmode="layer"
     inkscape:label="Layer 1">
    <path
       style="fill:#0068c8;fill-opacity:1;stroke:none;stroke-opacity:1"
       d="M 17.0625 219.33789 C 21.823788 211.88331 26.602777 204.35228 31.259766 197.22852 C 38.386215 186.32723 45.042891 176.36131 50.160156 169.00195 C 52.365809 165.82991 54.18931 163.02352 55.673828 160.54688 C 57.158347 158.07023 58.302939 155.92199 59.148438 154.06641 C 59.993936 152.21082 60.541486 150.64871 60.830078 149.33984 C 61.118671 148.03098 61.14909 146.97711 60.962891 146.14062 C 60.776691 145.30414 60.373799 144.68453 59.794922 144.24609 C 59.216044 143.80766 58.461707 143.55028 57.572266 143.43555 C 56.682824 143.32082 55.656954 143.34779 54.539062 143.48242 C 53.421171 143.61706 52.20954 143.8583 50.945312 144.16797 C 45.558748 145.49038 40.040516 147.04779 34.503906 148.75781 C 28.967297 150.46783 23.413926 152.33009 17.955078 154.26562 C 11.719819 156.47645 6.2412328 158.7449 0.42578125 161.02344 A 150 150 0 0 0 17.0625 219.33789 z "
       id="path1502" />
    <path
       style="fill:#0068c8;fill-opacity:1;stroke:none;stroke-opacity:1"
       d="M 35.138672 246.24609 C 47.912437 224.89811 61.941017 201.57264 68.140625 191.10742 C 78.30982 173.94142 83.233919 165.8614 85.310547 162.07227 C 86.348861 160.1777 86.67486 159.35501 86.589844 159.00781 C 86.504827 158.66061 86.008863 158.78875 85.400391 158.79102 C 84.539008 158.79407 83.454519 159.12183 82.146484 159.79688 C 80.83845 160.47192 79.306187 161.49293 77.548828 162.87891 C 75.791469 164.26489 73.808965 166.0165 71.599609 168.15234 C 69.390253 170.28819 66.955041 172.80973 64.291016 175.73438 C 61.858679 178.40467 58.828653 181.98317 55.382812 186.19922 C 51.936972 190.41527 48.07525 195.26895 43.974609 200.48828 C 37.138785 209.18897 29.611364 218.963 22.285156 228.44141 A 150 150 0 0 0 35.138672 246.24609 z "
       id="path1500" />
    <path
       style="fill:#0068c8;fill-opacity:1;stroke:none;stroke-opacity:1"
       d="M 235.51367 273.02539 C 233.41389 266.67037 231.36557 260.38837 229.01758 253.67773 C 225.55087 243.76978 221.8346 233.61455 217.93164 223.63281 C 214.02868 213.65107 209.9388 203.84218 205.72461 194.62305 C 203.61751 190.01348 201.47982 185.55115 199.31836 181.28906 C 197.1569 177.02697 194.97169 172.96436 192.77148 169.1543 C 190.57128 165.34423 188.35613 161.78669 186.13281 158.5332 C 183.9095 155.27971 181.67807 152.33065 179.44727 149.73828 C 177.14868 147.06715 174.88003 144.51431 172.61914 142.16211 C 170.35825 139.80991 168.10513 137.65935 165.84375 135.79102 C 163.58237 133.92268 161.31178 132.33673 159.01172 131.11719 C 157.86169 130.50741 156.70397 129.98892 155.53711 129.57227 C 154.37024 129.15561 153.19433 128.84159 152.00586 128.63867 C 150.81739 128.43576 149.61719 128.34356 148.40234 128.375 C 147.18749 128.40644 145.95889 128.56125 144.71289 128.84766 C 143.46689 129.13406 142.2038 129.55325 140.92188 130.11523 C 139.63995 130.67722 138.33825 131.38205 137.01562 132.24023 C 135.693 133.09842 134.34857 134.11015 132.98047 135.28516 C 131.61237 136.46016 130.22109 137.79811 128.80273 139.31055 C 127.38438 140.82298 125.94017 142.50842 124.4668 144.37891 C 122.99342 146.24939 121.4902 148.30554 119.95703 150.55469 C 112.65862 161.26145 87.109908 197.28173 61.376953 233.06836 C 55.405866 241.37231 50.212527 248.45649 44.447266 256.41602 A 150 150 0 0 0 150 300 A 150 150 0 0 0 235.51367 273.02539 z "
       id="path1498" />
    <path
       style="fill:none;fill-opacity:1;stroke:none;stroke-opacity:1"
       d="M 244.35742 266.51953 C 243.89516 263.60764 243.48406 260.80788 243.00586 257.87305 C 241.21984 246.91186 239.31623 235.81523 237.25195 224.76758 C 235.18768 213.71993 232.96397 202.72084 230.5332 191.95508 C 228.10244 181.18932 225.46556 170.65653 222.58008 160.54102 C 221.13734 155.48326 219.63156 150.5312 218.05859 145.70508 C 216.48563 140.87895 214.84507 136.17931 213.13086 131.63086 C 211.41665 127.08241 209.63016 122.68372 207.76367 118.45898 C 205.89718 114.23425 203.95167 110.1831 201.92188 106.32812 C 199.89208 102.47315 197.7764 98.816121 195.57227 95.376953 C 193.36813 91.937785 191.07505 88.717552 188.68555 85.740234 C 186.29605 82.762917 183.8105 80.028017 181.22461 77.558594 C 178.63871 75.089171 175.95152 72.884234 173.1582 70.96875 C 173.7362 70.18023 174.30326 68.972864 174.82812 67.507812 C 175.35299 66.042761 175.83626 64.321379 176.25195 62.507812 C 176.66765 60.694246 177.01515 58.787192 177.26562 56.953125 C 177.5161 55.119058 177.67001 53.356631 177.69922 51.830078 C 177.71704 50.897818 177.99276 50.053995 178.52344 49.130859 C 179.05411 48.207724 179.83862 47.205386 180.87109 45.958984 C 181.90356 44.712582 183.18579 43.222372 184.70898 41.320312 C 186.23218 39.418253 187.99714 37.104952 190 34.214844 C 189.54306 33.927806 188.73842 33.938736 187.61719 34.1875 C 186.49596 34.436264 185.05791 34.922748 183.33398 35.583984 C 179.88612 36.906458 175.29377 38.929724 169.80469 41.162109 C 167.27651 42.190304 165.0274 43.270766 163.03125 44.316406 C 161.0351 45.362046 159.29272 46.373928 157.7832 47.265625 C 156.27369 48.157322 154.996 48.929726 153.92773 49.496094 C 152.85947 50.062461 152.00054 50.422538 151.32812 50.492188 C 149.8841 50.641771 147.85441 51.271591 145.31836 52.320312 C 142.7823 53.369034 139.74031 54.836645 136.26953 56.664062 C 132.79876 58.49148 128.90053 60.67839 124.65234 63.164062 C 120.40416 65.649735 115.80578 68.433546 110.9375 71.457031 C 101.20095 77.504001 90.382421 84.506853 79.109375 91.982422 C 67.836329 99.457991 56.109626 107.40702 44.558594 115.34766 C 28.064319 126.68647 14.119699 136.63899 0.17382812 146.54102 A 150 150 0 0 0 0 150 A 150 150 0 0 0 0.42578125 161.02344 C 6.2412328 158.7449 11.719819 156.47645 17.955078 154.26562 C 23.413926 152.33009 28.967297 150.46783 34.503906 148.75781 C 40.040516 147.04779 45.558748 145.49038 50.945312 144.16797 C 52.20954 143.8583 53.421171 143.61706 54.539062 143.48242 C 55.656954 143.34779 56.682824 143.32082 57.572266 143.43555 C 58.461707 143.55028 59.216044 143.80766 59.794922 144.24609 C 60.373799 144.68453 60.776691 145.30414 60.962891 146.14062 C 61.14909 146.97711 61.118671 148.03098 60.830078 149.33984 C 60.541486 150.64871 59.993936 152.21082 59.148438 154.06641 C 58.302939 155.92199 57.158347 158.07023 55.673828 160.54688 C 54.18931 163.02352 52.365809 165.82991 50.160156 169.00195 C 45.042891 176.36131 38.386215 186.32723 31.259766 197.22852 C 26.602777 204.35228 21.823788 211.88331 17.0625 219.33789 A 150 150 0 0 0 22.285156 228.44141 C 29.611364 218.963 37.138785 209.18897 43.974609 200.48828 C 48.07525 195.26895 51.936972 190.41527 55.382812 186.19922 C 58.828653 181.98317 61.858679 178.40467 64.291016 175.73438 C 66.955041 172.80973 69.390253 170.28819 71.599609 168.15234 C 73.808965 166.0165 75.791469 164.26489 77.548828 162.87891 C 79.306187 161.49293 80.83845 160.47192 82.146484 159.79688 C 83.454519 159.12183 84.539008 158.79407 85.400391 158.79102 C 86.008863 158.78875 86.504827 158.66061 86.589844 159.00781 C 86.67486 159.35501 86.348861 160.1777 85.310547 162.07227 C 83.233919 165.8614 78.30982 173.94142 68.140625 191.10742 C 61.941017 201.57264 47.912437 224.89811 35.138672 246.24609 A 150 150 0 0 0 44.447266 256.41602 C 50.212527 248.45649 55.405866 241.37231 61.376953 233.06836 C 87.109908 197.28173 112.65862 161.26145 119.95703 150.55469 C 121.4902 148.30554 122.99342 146.24939 124.4668 144.37891 C 125.94017 142.50842 127.38438 140.82298 128.80273 139.31055 C 130.22109 137.79811 131.61237 136.46016 132.98047 135.28516 C 134.34857 134.11015 135.693 133.09842 137.01562 132.24023 C 138.33825 131.38205 139.63995 130.67722 140.92188 130.11523 C 142.2038 129.55325 143.46689 129.13406 144.71289 128.84766 C 145.95889 128.56125 147.18749 128.40644 148.40234 128.375 C 149.61719 128.34356 150.81739 128.43576 152.00586 128.63867 C 153.19433 128.84159 154.37024 129.15561 155.53711 129.57227 C 156.70397 129.98892 157.86169 130.50741 159.01172 131.11719 C 161.31178 132.33673 163.58237 133.92268 165.84375 135.79102 C 168.10513 137.65935 170.35825 139.80991 172.61914 142.16211 C 174.88003 144.51431 177.14868 147.06715 179.44727 149.73828 C 181.67807 152.33065 183.9095 155.27971 186.13281 158.5332 C 188.35613 161.78669 190.57128 165.34423 192.77148 169.1543 C 194.97169 172.96436 197.1569 177.02697 199.31836 181.28906 C 201.47982 185.55115 203.61751 190.01348 205.72461 194.62305 C 209.9388 203.84218 214.02868 213.65107 217.93164 223.63281 C 221.8346 233.61455 225.55087 243.76978 229.01758 253.67773 C 231.36557 260.38837 233.41389 266.67037 235.51367 273.02539 A 150 150 0 0 0 244.35742 266.51953 z "
       id="path1496" />
    <path
       style="fill:#0068c8;fill-opacity:1;stroke:none;stroke-opacity:1"
       d="M 150 0 A 150 150 0 0 0 0.17382812 146.54102 C 14.119699 136.63899 28.064319 126.68647 44.558594 115.34766 C 56.109626 107.40702 67.836329 99.457991 79.109375 91.982422 C 90.382421 84.506853 101.20095 77.504001 110.9375 71.457031 C 115.80578 68.433546 120.40416 65.649735 124.65234 63.164062 C 128.90053 60.67839 132.79876 58.49148 136.26953 56.664062 C 139.74031 54.836645 142.7823 53.369034 145.31836 52.320312 C 147.85441 51.271591 149.8841 50.641771 151.32812 50.492188 C 152.00054 50.422538 152.85947 50.062461 153.92773 49.496094 C 154.996 48.929726 156.27369 48.157322 157.7832 47.265625 C 159.29272 46.373928 161.0351 45.362046 163.03125 44.316406 C 165.0274 43.270766 167.27651 42.190304 169.80469 41.162109 C 175.29377 38.929724 179.88612 36.906458 183.33398 35.583984 C 185.05791 34.922748 186.49596 34.436264 187.61719 34.1875 C 188.73842 33.938736 189.54306 33.927806 190 34.214844 C 187.99714 37.104952 186.23218 39.418253 184.70898 41.320312 C 183.18579 43.222372 181.90356 44.712582 180.87109 45.958984 C 179.83862 47.205386 179.05411 48.207724 178.52344 49.130859 C 177.99276 50.053995 177.71704 50.897818 177.69922 51.830078 C 177.67001 53.356631 177.5161 55.119058 177.26562 56.953125 C 177.01515 58.787192 176.66765 60.694246 176.25195 62.507812 C 175.83626 64.321379 175.35299 66.042761 174.82812 67.507812 C 174.30326 68.972864 173.7362 70.18023 173.1582 70.96875 C 175.95152 72.884234 178.63871 75.089171 181.22461 77.558594 C 183.8105 80.028017 186.29605 82.762917 188.68555 85.740234 C 191.07505 88.717552 193.36813 91.937785 195.57227 95.376953 C 197.7764 98.816121 199.89208 102.47315 201.92188 106.32812 C 203.95167 110.1831 205.89718 114.23425 207.76367 118.45898 C 209.63016 122.68372 211.41665 127.08241 213.13086 131.63086 C 214.84507 136.17931 216.48563 140.87895 218.05859 145.70508 C 219.63156 150.5312 221.13734 155.48326 222.58008 160.54102 C 225.46556 170.65653 228.10244 181.18932 230.5332 191.95508 C 232.96397 202.72084 235.18768 213.71993 237.25195 224.76758 C 239.31623 235.81523 241.21984 246.91186 243.00586 257.87305 C 243.48406 260.80788 243.89516 263.60764 244.35742 266.51953 A 150 150 0 0 0 300 150 A 150 150 0 0 0 150 0 z "
       id="path1433" />
  </g>
</svg>
