<?xml version="1.0" encoding="UTF-8"?>
<svg xmlns="http://www.w3.org/2000/svg" xmlns:xlink="http://www.w3.org/1999/xlink" width="594.7pt" height="652.3pt" viewBox="0 0 594.7 652.3" version="1.1">
<defs>
<clipPath id="clip1">
  <path d="M 0 25 L 594.699219 25 L 594.699219 627 L 0 627 Z M 0 25 "/>
</clipPath>
<clipPath id="clip2">
  <path d="M 161 376 L 325 376 L 325 652.300781 L 161 652.300781 Z M 161 376 "/>
</clipPath>
<clipPath id="clip3">
  <path d="M 0 25 L 594.699219 25 L 594.699219 627 L 0 627 Z M 0 25 "/>
</clipPath>
</defs>
<g id="surface1">
<g clip-path="url(#clip1)" clip-rule="nonzero">
<path style="fill:none;stroke-width:37.5;stroke-linecap:butt;stroke-linejoin:miter;stroke:rgb(100%,0%,0%);stroke-opacity:1;stroke-miterlimit:4;" d="M 1250.351563 5435.304688 C 666.835938 5161.398438 638.75 4273.742188 1892.265625 3652.570313 C 1316.601563 3785.695313 887.1875 3739.328125 603.4375 3596.085938 C 0.195313 3291.59375 54.609375 2554.953125 764.21875 2205.070313 C 502.34375 1071.632813 1782.890625 505.265625 2599.375 2161.4375 C 2189.648438 369.5625 3535.546875 0.8125 4049.21875 1042.53125 C 5178.125 781.671875 5744.101563 2051.125 4111.953125 2868.117188 C 5898.242188 2463.117188 6264.960938 3807.21875 5224.492188 4320.226563 C 5485.625 5450.382813 4213.007813 6016.398438 3396.09375 4377.6875 C 3796.875 6158.976563 2455.234375 6523.664063 1942.773438 5484.328125 C 1671.914063 5546.90625 1433.90625 5521.476563 1250.351563 5435.304688 Z M 1250.351563 5435.304688 " transform="matrix(0.1,0,0,-0.1,0,652.3)"/>
</g>
<g clip-path="url(#clip2)" clip-rule="nonzero">
<path style="fill:none;stroke-width:115.387;stroke-linecap:butt;stroke-linejoin:miter;stroke:rgb(37.646484%,79.296875%,0%);stroke-opacity:1;stroke-miterlimit:4;" d="M 2587.851563 2102.53125 C 2302.148438 1568.195313 2217.34375 884.953125 2285.195313 88.46875 " transform="matrix(0.1,0,0,-0.1,0,652.3)"/>
</g>
<path style=" stroke:none;fill-rule:evenodd;fill:rgb(70.117188%,70.117188%,70.117188%);fill-opacity:1;" d="M 122.496094 103.320313 C 91.101563 118.058594 74.152344 150.382813 82.382813 186.195313 C 89.203125 215.863281 112.921875 247.53125 156.921875 275.492188 C 114.996094 270.347656 81.628906 275.21875 57.695313 287.296875 C 25.734375 303.429688 10.320313 332.035156 13.257813 361.050781 C 16.078125 388.933594 35.734375 416.429688 70.003906 434.707031 C 58.679688 491.597656 85.066406 536.359375 126.585938 544.488281 C 163.527344 551.71875 209.519531 530.046875 248.15625 469.277344 C 239.886719 540.390625 261.855469 586.015625 294.980469 603.640625 C 332.207031 623.453125 380.847656 605.570313 408.050781 554.546875 C 464.625 565.738281 509.128906 539.589844 517.5 498.382813 C 524.96875 461.617188 503.832031 415.710938 443.734375 377.058594 C 514.984375 385.355469 560.582031 363.300781 578.15625 330.074219 C 597.855469 292.84375 579.96875 244.335938 529.003906 217.167969 C 540.214844 160.519531 513.972656 115.960938 472.683594 107.660156 C 435.835938 100.25 389.90625 121.621094 351.238281 182.011719 C 359.359375 111.003906 337.175781 65.601563 303.972656 48.121094 C 266.761719 28.53125 218.367188 46.433594 191.226563 97.332031 C 164.875 92.09375 141.179688 94.550781 122.496094 103.320313 Z M 122.496094 103.320313 "/>
<path style=" stroke:none;fill-rule:evenodd;fill:rgb(37.646484%,79.296875%,0%);fill-opacity:1;" d="M 125.035156 108.769531 C 66.683594 136.160156 63.875 224.925781 189.226563 287.042969 C 131.660156 273.730469 88.71875 278.367188 60.34375 292.691406 C 0.0195313 323.140625 5.460938 396.804688 76.421875 431.792969 C 50.234375 545.136719 178.289063 601.773438 259.9375 436.15625 C 218.964844 615.34375 353.554688 652.21875 404.921875 548.046875 C 517.8125 574.132813 574.410156 447.1875 411.195313 365.488281 C 589.824219 405.988281 626.496094 271.578125 522.449219 220.277344 C 548.5625 107.261719 421.300781 50.660156 339.609375 214.53125 C 379.6875 36.402344 245.523438 -0.0664063 194.277344 103.867188 C 167.191406 97.609375 143.390625 100.152344 125.035156 108.769531 Z M 125.035156 108.769531 "/>
<g clip-path="url(#clip3)" clip-rule="nonzero">
<path style="fill:none;stroke-width:37.5;stroke-linecap:butt;stroke-linejoin:miter;stroke:rgb(100%,100%,100%);stroke-opacity:1;stroke-miterlimit:4;" d="M 1250.351563 5435.304688 C 666.835938 5161.398438 638.75 4273.742188 1892.265625 3652.570313 C 1316.601563 3785.695313 887.1875 3739.328125 603.4375 3596.085938 C 0.195313 3291.59375 54.609375 2554.953125 764.21875 2205.070313 C 502.34375 1071.632813 1782.890625 505.265625 2599.375 2161.4375 C 2189.648438 369.5625 3535.546875 0.8125 4049.21875 1042.53125 C 5178.125 781.671875 5744.101563 2051.125 4111.953125 2868.117188 C 5898.242188 2463.117188 6264.960938 3807.21875 5224.492188 4320.226563 C 5485.625 5450.382813 4213.007813 6016.398438 3396.09375 4377.6875 C 3796.875 6158.976563 2455.234375 6523.664063 1942.773438 5484.328125 C 1671.914063 5546.90625 1433.90625 5521.476563 1250.351563 5435.304688 Z M 1250.351563 5435.304688 " transform="matrix(0.1,0,0,-0.1,0,652.3)"/>
</g>
<path style="fill:none;stroke-width:7.5;stroke-linecap:butt;stroke-linejoin:miter;stroke:rgb(100%,100%,100%);stroke-opacity:1;stroke-miterlimit:4;" d="M 1250.351563 5435.304688 C 666.835938 5161.398438 638.75 4273.742188 1892.265625 3652.570313 C 1316.601563 3785.695313 887.1875 3739.328125 603.4375 3596.046875 C 370.546875 3478.507813 235.703125 3296.59375 198.710938 3097.375 C 1522.695313 1619.171875 4714.140625 3622.140625 5141.328125 5077.335938 C 4834.53125 5595.382813 3993.476563 5576.007813 3396.09375 4377.6875 C 3796.875 6158.976563 2455.234375 6523.664063 1942.773438 5484.328125 C 1671.914063 5546.90625 1433.90625 5521.476563 1250.351563 5435.304688 Z M 1250.351563 5435.304688 " transform="matrix(0.1,0,0,-0.1,0,652.3)"/>
</g>
</svg>
