<?xml version="1.0" standalone="no"?>
<!DOCTYPE svg PUBLIC "-//W3C//DTD SVG 20010904//EN"
 "http://www.w3.org/TR/2001/REC-SVG-20010904/DTD/svg10.dtd">
<svg version="1.0" xmlns="http://www.w3.org/2000/svg"
 width="1000.000000pt" height="1000.000000pt" viewBox="0 0 1000.000000 1000.000000"
 preserveAspectRatio="xMidYMid meet">

<g transform="translate(0.000000,1000.000000) scale(0.100000,-0.100000)"
fill="#000000" stroke="none">
<path d="M1951 8979 c-447 -94 -794 -425 -920 -879 l-26 -95 0 -3005 0 -3005
26 -95 c130 -465 495 -805 953 -885 133 -23 398 -20 503 5 226 54 442 182 602
356 35 38 72 88 83 112 11 23 24 42 30 42 5 0 7 4 4 9 -4 5 56 72 131 148 103
102 160 152 225 191 408 251 901 245 1295 -14 117 -76 281 -243 351 -357 104
-167 167 -355 182 -540 4 -60 7 217 6 668 l-1 770 -27 95 c-60 219 -161 394
-317 551 -221 220 -468 329 -796 350 -199 12 -279 30 -400 89 -172 84 -281
193 -365 365 -79 163 -83 190 -88 646 -7 697 18 884 162 1185 232 483 681 814
1216 894 96 14 344 14 440 0 580 -88 1053 -465 1269 -1012 16 -40 37 -106 47
-146 17 -66 21 -73 49 -81 355 -99 1175 -337 1175 -341 0 -3 -260 -80 -577
-171 l-578 -165 0 -1339 0 -1340 27 -98 c120 -436 455 -765 881 -867 105 -25
370 -28 503 -5 490 86 884 481 969 972 14 80 15 282 12 1739 -3 1631 -3 1651
-25 1799 -111 770 -385 1403 -866 2005 -116 145 -388 421 -526 535 -619 512
-1302 809 -2095 912 -201 26 -769 26 -970 0 -444 -58 -854 -178 -1241 -362
l-130 -62 -59 65 c-165 181 -397 312 -642 361 -137 28 -358 28 -492 0z"/>
<path d="M4800 5779 c-286 -74 -507 -297 -580 -583 -28 -109 -28 -283 0 -392
73 -288 296 -511 584 -584 109 -27 283 -28 392 0 284 72 512 300 584 584 28
109 27 283 0 392 -73 287 -298 512 -584 584 -108 27 -291 27 -396 -1z"/>
</g>
</svg>
