<svg height="48pt" viewBox="0 0 48 48" width="48pt" xmlns="http://www.w3.org/2000/svg" xmlns:xlink="http://www.w3.org/1999/xlink"><linearGradient id="a" gradientTransform="matrix(48 0 0 46.985 .495 .559)" gradientUnits="userSpaceOnUse" x1="0" x2="1" y1=".5" y2=".5"><stop offset="0" stop-color="#b2fefa"/><stop offset=".98260869565" stop-color="#0ed2f7"/></linearGradient><path d="m22.856 43.272c1.197.099 2.09 1.135 1.991 2.312-.098 1.176-1.154 2.051-2.358 1.952-6.028-.492-11.654-3.205-15.738-7.594-4.072-4.389-6.31-10.131-6.255-16.067.057-6.235 2.643-12.201 7.179-16.578 4.545-4.367 10.677-6.793 17.037-6.737s12.446 2.592 16.91 7.038c4.454 4.456 6.929 10.468 6.872 16.703-.011 1.18-.997 2.13-2.202 2.119-1.204-.01-2.173-.977-2.162-2.158.047-5.101-1.98-10.018-5.623-13.665-3.654-3.637-8.631-5.713-13.835-5.759-5.203-.046-10.218 1.941-13.938 5.513-3.71 3.582-5.828 8.462-5.875 13.563-.045 4.855 1.778 9.556 5.116 13.147 3.337 3.591 7.943 5.803 12.881 6.211zm18.134-10.078c.558-1.04 1.856-1.431 2.896-.873 1.039.559 1.43 1.856.872 2.896-2.382 4.428-6.126 7.988-10.67 10.139-1.067.51-2.345.057-2.851-1.01-.507-1.067-.052-2.347 1.015-2.857 3.727-1.763 6.78-4.666 8.738-8.295zm-22.99-24.194-6 3 4 6v-4h4l4 10h4v18l4-14 2 8.5v-12.5l5 5-3-5-8-12h-4z" fill="url(#a)" fill-rule="evenodd"/></svg>