<?xml version="1.0" encoding="UTF-8" standalone="no"?>
<!-- Created with Inkscape (http://www.inkscape.org/) -->

<svg
   xmlns:dc="http://purl.org/dc/elements/1.1/"
   xmlns:cc="http://creativecommons.org/ns#"
   xmlns:rdf="http://www.w3.org/1999/02/22-rdf-syntax-ns#"
   xmlns:svg="http://www.w3.org/2000/svg"
   xmlns="http://www.w3.org/2000/svg"
   xmlns:sodipodi="http://sodipodi.sourceforge.net/DTD/sodipodi-0.dtd"
   xmlns:inkscape="http://www.inkscape.org/namespaces/inkscape"
   width="1062.9921"
   height="1062.9921"
   id="svg2847"
   version="1.1"
   inkscape:version="0.46+devel"
   sodipodi:docname="Salix round logo.svg"
   inkscape:output_extension="org.inkscape.output.svg.inkscape"
   inkscape:export-filename="/home/thorsten/Downloads/salix-icons/Salix round logo.png"
   inkscape:export-xdpi="12.533033"
   inkscape:export-ydpi="12.533033">
  <defs
     id="defs2849">
    <inkscape:perspective
       sodipodi:type="inkscape:persp3d"
       inkscape:vp_x="0 : 526.18109 : 1"
       inkscape:vp_y="0 : 1000 : 0"
       inkscape:vp_z="744.09448 : 526.18109 : 1"
       inkscape:persp3d-origin="372.04724 : 350.78739 : 1"
       id="perspective2855" />
    <inkscape:perspective
       id="perspective2927"
       inkscape:persp3d-origin="0.5 : 0.33333333 : 1"
       inkscape:vp_z="1 : 0.5 : 1"
       inkscape:vp_y="0 : 1000 : 0"
       inkscape:vp_x="0 : 0.5 : 1"
       sodipodi:type="inkscape:persp3d" />
    <inkscape:perspective
       id="perspective10"
       inkscape:persp3d-origin="0.5 : 0.33333333 : 1"
       inkscape:vp_z="1 : 0.5 : 1"
       inkscape:vp_y="0 : 1000 : 0"
       inkscape:vp_x="0 : 0.5 : 1"
       sodipodi:type="inkscape:persp3d" />
    <filter
       inkscape:collect="always"
       id="filter3825">
      <feGaussianBlur
         inkscape:collect="always"
         stdDeviation="1.0614286"
         id="feGaussianBlur3827" />
    </filter>
    <filter
       inkscape:collect="always"
       id="filter3845">
      <feGaussianBlur
         inkscape:collect="always"
         stdDeviation="0.44945123"
         id="feGaussianBlur3847" />
    </filter>
  </defs>
  <sodipodi:namedview
     id="base"
     pagecolor="#ffffff"
     bordercolor="#666666"
     borderopacity="1.0"
     inkscape:pageopacity="0.0"
     inkscape:pageshadow="2"
     inkscape:zoom="0.7"
     inkscape:cx="398.50608"
     inkscape:cy="581.12458"
     inkscape:document-units="px"
     inkscape:current-layer="layer1"
     showgrid="false"
     units="mm"
     inkscape:window-width="1918"
     inkscape:window-height="1144"
     inkscape:window-x="-1"
     inkscape:window-y="-1"
     inkscape:window-maximized="1" />
  <metadata
     id="metadata2852">
    <rdf:RDF>
      <cc:Work
         rdf:about="">
        <dc:format>image/svg+xml</dc:format>
        <dc:type
           rdf:resource="http://purl.org/dc/dcmitype/StillImage" />
        <dc:title></dc:title>
      </cc:Work>
    </rdf:RDF>
  </metadata>
  <g
     inkscape:label="Green circle"
     inkscape:groupmode="layer"
     id="layer1"
     transform="translate(0,10.629915)">
    <path
       sodipodi:type="arc"
       style="fill:#70b250;fill-opacity:1;stroke-width:17.71653543;stroke-miterlimit:4;stroke-dasharray:none;stroke:#000000;stroke-opacity:1;filter:url(#filter3825)"
       id="path2935"
       sodipodi:cx="532.14288"
       sodipodi:cy="532.27777"
       sodipodi:rx="530.71429"
       sodipodi:ry="530.71429"
       d="m 1062.8572,532.27777 a 530.71429,530.71429 0 1 1 -1061.4286111,0 530.71429,530.71429 0 1 1 1061.4286111,0 z"
       transform="translate(0,-10.629915)" />
  </g>
  <g
     inkscape:groupmode="layer"
     id="layer3"
     inkscape:label="Tree"
     style="opacity:0.18">
    <path
       id="path2818"
       d="m 129.93932,837.45458 c 5.28929,-3.02363 13.46543,-5.55888 18.16923,-5.63381 13.99942,-0.22311 40.54513,-15.6166 54.53651,-31.62487 l 13.08088,-14.96653 -9.95108,-10.43165 c -10.77171,-11.29188 -18.13407,-27.48622 -18.13407,-39.88777 0,-4.28891 -3.4621,-12.19939 -7.69353,-17.57879 -5.67947,-7.22025 -7.69354,-15.60547 -7.69354,-32.03082 0,-13.61988 -2.4553,-26.52821 -6.33023,-33.27986 -8.94168,-15.57999 -4.31695,-43.98825 9.47024,-58.17238 5.67802,-5.84151 13.75717,-17.05516 17.95369,-24.91926 5.9843,-11.2144 6.69815,-15.79059 3.30948,-21.21664 -3.24654,-5.19855 -3.08614,-9.85402 0.64535,-18.72855 2.7312,-6.49569 6.86786,-12.98579 9.1925,-14.42253 2.32462,-1.43669 4.22662,-5.67041 4.22662,-9.40813 0,-7.18195 13.03327,-21.1461 27.74482,-29.72643 23.62057,-13.77641 36.03808,-17.59155 50.80862,-15.61038 16.24741,2.17922 15.72211,2.48018 44.54303,-25.51975 16.95184,-16.46901 26.09169,-21.4076 35.20728,-19.02381 6.07062,1.5875 7.06583,5.24458 6.4058,23.53925 -0.42977,11.9129 -2.61162,24.74193 -4.84851,28.50898 -5.45629,9.18879 0.66941,12.67518 27.89266,15.87472 13.34456,1.56837 33.62223,8.49569 53.36208,18.22975 33.78276,16.65877 42.62262,17.26405 58.95752,4.03687 7.31043,-5.91962 7.99755,-8.33606 4.3228,-15.20242 -3.00867,-5.62175 -3.11568,-8.93877 -0.34353,-10.652 4.68461,-2.89522 15.2177,4.80253 15.2533,11.1473 0.0111,2.3856 5.30764,7.34433 11.76503,11.01936 11.52142,6.55713 11.91952,6.5032 21.30774,-2.88507 6.83428,-6.83422 13.74196,-9.56699 24.18303,-9.56699 9.73062,0 16.9432,-2.5715 21.57855,-7.69351 8.72154,-9.63719 11.53859,-9.61861 21.29749,0.14041 8.65353,8.65353 7.03488,15.24676 -3.74306,15.24676 -3.84752,0 -9.06739,2.49652 -11.59974,5.54781 -2.53235,3.05125 -10.10124,6.08058 -16.81975,6.73183 -15.83007,1.5344 -15.80909,8.52945 0.0307,10.06387 10.28418,0.99627 12.66598,3.15289 14.86956,13.46368 3.49105,16.33482 8.47751,21.89428 19.6377,21.89428 5.09667,0 10.23774,2.53068 11.42465,5.62371 1.18689,3.09307 5.46018,6.67177 9.49615,7.95276 4.03601,1.28097 7.33818,4.86328 7.33818,7.96068 0,9.35222 -11.36363,10.72994 -20.39123,2.47224 -4.65275,-4.25594 -12.78711,-9.00731 -18.07641,-10.5586 -13.03464,-3.82286 -23.08059,-13.18671 -23.08059,-21.51348 0,-9.81376 -5.57953,-12.11209 -34.23685,-14.10294 -37.14137,-2.58026 -64.59606,-1.58781 -91.77789,3.31749 -22.7573,4.10688 -25.17942,3.79302 -44.2378,-5.73209 -11.14281,-5.56905 -26.18521,-9.92637 -33.62599,-9.74037 -12.31976,0.30774 -42.36935,-6.66494 -58.51728,-13.5787 -4.58307,-1.96225 -9.53576,0.36314 -16.28555,7.64618 -7.98835,8.61962 -11.835,10.0389 -21.80415,8.04504 -8.70774,-1.74154 -15.71557,-0.18926 -24.97215,5.53169 l -12.86756,7.95257 2.00948,27.04396 c 2.00835,27.02948 2.0009,27.05506 -14.00033,47.79559 -13.75435,17.82817 -15.65486,22.51764 -13.49063,33.28758 1.38555,6.89478 3.74808,19.37942 5.25007,27.74364 2.14962,11.97067 6.00609,17.42985 18.11797,25.64749 9.772,6.63009 15.55768,13.60028 15.85467,19.10054 0.25735,4.76337 5.01752,11.97512 10.5786,16.02607 5.56034,4.05079 10.1103,9.89211 10.1103,12.98056 0,9.03549 37.69316,41.2129 57.14236,48.78053 9.82826,3.82414 24.79372,10.21647 33.25661,14.20517 17.97966,8.47417 72.05509,23.01871 86.315,23.21596 5.41974,0.0749 14.18172,2.61018 19.47103,5.63381 8.46787,4.8407 -6.69912,5.47753 -126.94325,5.33017 -75.10808,-0.0919 -134.39633,-1.04053 -131.75167,-2.10766 2.64466,-1.06714 4.80843,-3.54748 4.80843,-5.5119 0,-4.22413 -30.99556,-0.21273 -36.35191,4.70463 -2.00993,1.8452 -21.05142,3.29356 -42.3144,3.21857 -35.46957,-0.125 -37.86638,-0.58996 -29.04308,-5.63381 z m 813.83912,-50.54136 c -10.46979,-11.42841 -14.78696,-13.62166 -23.52476,-11.95132 -11.67569,2.23194 -36.09881,-7.82814 -36.25386,-14.93329 -0.0521,-2.38558 2.53052,-6.51612 5.73902,-9.17892 3.20852,-2.66282 5.37231,-9.30468 4.80845,-14.75966 -1.39539,-13.49987 8.32125,-14.89758 30.63845,-4.40728 10.32521,4.85342 22.40591,7.67416 28.82942,6.73138 8.68792,-1.27512 12.66389,0.63418 18.55796,8.91161 8.98529,12.61871 9.11317,14.05449 1.89447,21.2732 -3.08367,3.08366 -4.68143,8.01787 -3.55057,10.96492 2.44758,6.37824 -4.85056,21.34646 -10.40803,21.34646 -2.14915,0 -9.67789,-6.29868 -16.73055,-13.9971 z m -98.34091,-36.46907 c -7.40502,-4.46767 -13.93717,-8.54104 -14.51591,-9.05196 -0.57872,-0.5109 0.0392,-3.77326 1.37326,-7.24967 3.23828,-8.43883 10.44769,-7.98107 18.74774,1.1904 4.84907,5.35819 9.84803,6.90104 17.44011,5.38261 14.21917,-2.84383 17.66947,3.98294 5.90786,11.68947 -11.98678,7.85402 -12.77344,7.80075 -28.95306,-1.96085 z m -64.37999,-11.4724 c -1.6161,-1.54274 -7.2483,-3.38431 -12.51599,-4.09237 -6.03084,-0.81067 -10.03171,-4.13651 -10.80383,-8.98096 -0.67441,-4.23145 -2.25643,-10.2901 -3.5156,-13.46367 -1.25912,-3.1736 -1.91449,-8.79948 -1.45634,-12.502 0.74157,-5.99287 -3.56953,-8.54258 -12.15259,-7.18737 -1.58678,0.25043 -2.88507,-1.31264 -2.88507,-3.47371 0,-2.16108 -4.32761,-5.90101 -9.6169,-8.31097 -13.26415,-6.04357 -12.80881,-22.53373 1.05059,-38.04509 9.45623,-10.58333 12.25521,-11.64114 24.64991,-9.31589 9.68972,1.81777 14.73481,5.16924 16.43322,10.91663 2.33056,7.88645 2.67838,7.94676 7.08593,1.22848 11.7825,-17.95965 12.57616,-18.50608 23.05797,-15.87532 6.59362,1.65487 10.42781,5.20921 10.42781,9.66669 0,9.49439 6.35497,12.86732 26.83703,14.24384 19.42705,1.30559 24.14578,4.53242 25.10194,17.16541 0.60645,8.01316 2.25384,8.67592 18.60101,7.48361 15.05611,-1.09814 17.93561,-0.22041 17.93561,5.46727 0,3.72647 2.82502,9.89703 6.27786,13.71232 5.87981,6.49715 5.60583,7.19242 -4.32146,10.96679 -5.8296,2.21639 -16.5825,2.90737 -23.89532,1.53547 -8.26676,-1.55086 -16.90728,-0.56167 -22.84329,2.61517 -7.64174,4.08974 -11.0667,4.16068 -17.15989,0.35545 -9.44784,-5.90028 -14.8816,-2.97423 -12.36287,6.65733 1.04945,4.01306 -0.0793,11.01006 -2.50849,15.54889 -3.62913,6.78104 -7.45363,8.09524 -21.44972,7.37076 -9.36826,-0.48498 -18.3554,-2.14396 -19.97152,-3.68672 z M 569.23983,723.20568 c -2.53887,-2.53887 -4.61612,-7.73201 -4.61612,-11.54031 0,-3.80828 -1.77389,-6.92416 -3.94197,-6.92416 -2.16807,0 -5.58734,-4.32762 -7.59831,-9.6169 -4.28126,-11.26061 -17.85166,-12.97762 -25.02579,-3.16644 -4.11302,5.62498 -6.2601,5.81119 -16.77628,1.45527 -9.46146,-3.91909 -13.26803,-3.99233 -17.66869,-0.34005 -7.21845,5.99074 -27.67827,1.68142 -32.78151,-6.90461 -3.42415,-5.76101 -4.61138,-5.42904 -11.39285,3.18571 -6.57905,8.35768 -8.5932,8.98728 -15.38201,4.80845 -4.29644,-2.64466 -11.29731,-4.80845 -15.55744,-4.80845 -5.69758,-4e-5 -7.74571,-2.54295 -7.74571,-9.61695 0,-5.2893 -0.7666,-9.61691 -1.70351,-9.61691 -0.93692,0 -7.61894,3.49015 -14.84891,7.75596 -11.90864,7.0263 -15.78416,7.3817 -41.19369,3.77798 -23.59127,-3.34583 -29.0736,-3.0501 -34.50029,1.86095 -8.04423,7.27996 -9.38109,7.26053 -25.46027,-0.36968 -16.10691,-7.64304 -18.19624,-20.71874 -3.31068,-20.71874 5.37498,0 14.78395,-3.70503 20.90887,-8.23334 8.61266,-6.36763 14.62543,-7.76533 26.53397,-6.16806 14.43852,1.93661 15.6523,1.33533 19.48217,-9.65111 5.34173,-15.32324 5.36347,-15.26779 -3.77952,-9.63927 -6.7593,4.16106 -8.78554,3.68853 -14.42536,-3.36394 -8.83161,-11.04377 -20.90959,-16.79899 -35.25452,-16.79899 -9.14142,0 -12.73327,-2.22213 -15.54476,-9.6169 -2.011,-5.28932 -6.29575,-9.61693 -9.52169,-9.61693 -4.13877,0 -5.86535,-3.96331 -5.86535,-13.46366 0,-13.11894 0.38979,-13.46368 15.22306,-13.46368 12.78704,0 16.94213,2.15449 25.96566,13.46357 5.90841,7.40492 13.3783,13.4636 16.59973,13.46367 3.22139,7e-5 11.83749,6.9243 19.14684,15.38716 16.24336,18.80681 31.41599,20.90975 39.21942,5.43587 2.76009,-5.47315 11.53226,-13.61593 19.49367,-18.09506 l 14.47529,-8.14391 5.93834,8.47819 c 3.2661,4.66298 9.73505,8.50466 14.37543,8.53704 13.16548,0.0919 19.21549,5.60871 16.28304,14.8479 -1.89184,5.96071 -0.96177,8.17379 3.43514,8.17379 3.31617,0 6.02938,-2.65086 6.02938,-5.89084 0,-8.99082 10.50286,-11.06079 21.05157,-4.14901 5.19853,3.4062 13.02917,6.1931 17.40144,6.1931 4.37229,0 8.87307,2.40645 10.00172,5.3477 1.12863,2.94119 5.83469,5.54942 10.45789,5.79598 4.62315,0.24658 18.35925,1.46239 30.52464,2.70187 18.29591,1.86405 22.1189,3.50512 22.1189,9.49489 0,5.7826 2.131,6.86949 10.57861,5.39547 7.93785,-1.38512 13.93959,1.09463 24.04227,9.93349 13.00077,11.37438 13.20695,11.97026 5.99663,17.32914 -4.10691,3.05233 -12.7003,5.54968 -19.09648,5.54968 -10.69395,0 -11.13083,0.49851 -5.43136,6.198 3.4089,3.40888 14.31316,7.11266 24.23174,8.23065 19.8336,2.23554 25.90407,9.47012 16.13952,19.23462 -5.42674,5.42676 -8.01219,5.52124 -22.27561,0.81387 -15.34086,-5.06291 -16.41464,-4.9062 -21.78322,3.17931 -6.22358,9.37314 -16.04106,11.02059 -23.17304,3.88862 z m 120.40374,-66.07107 c -8.46289,-4.71205 -22.88781,-13.56389 -32.05544,-19.67074 -14.99972,-9.99182 -17.86807,-10.65052 -28.65196,-6.58007 -10.24167,3.8658 -13.13079,3.50217 -19.8759,-2.50178 -4.34077,-3.86378 -14.35399,-10.89001 -22.25169,-15.61383 -7.89763,-4.72383 -20.88045,-16.11794 -28.85072,-25.32026 -13.33151,-15.39233 -21.71562,-19.25856 -38.53362,-17.76928 -13.23903,1.17235 2.69453,23.50638 16.76997,23.50638 7.77789,0 16.9578,17.10464 13.97787,26.04448 -2.15908,6.47718 -10.52598,5.94383 -16.32247,-1.0405 -2.63385,-3.17358 -9.88661,-5.77015 -16.11731,-5.77015 -9.46989,0 -10.93904,-1.22712 -8.95461,-7.4795 1.69915,-5.3535 -0.41402,-9.30624 -7.43429,-13.90609 -10.31879,-6.76117 -12.37838,-16.63222 -5.96905,-28.60812 2.81613,-5.26199 2.29575,-8.71684 -1.9529,-12.96552 -3.18562,-3.18559 -4.48048,-6.54559 -2.87746,-7.46662 5.79785,-3.33121 30.1561,0.19464 44.14375,6.38998 7.86601,3.48392 17.78651,6.33439 22.0456,6.33439 5.01847,0 8.57976,3.33064 10.11905,9.46374 1.30639,5.20506 10.29478,16.02409 19.9742,24.04228 30.80766,25.52029 35.97529,28.05691 51.95281,25.50201 11.3155,-1.80944 16.57627,-0.64364 23.13785,5.1274 4.67089,4.10811 17.53585,13.42904 28.5888,20.7132 11.34173,7.47441 20.13955,16.17649 20.19553,19.97572 0.12423,8.43684 -2.02295,8.19142 -21.05801,-2.40712 z m 4.35682,-39.55647 c -28.76543,-7.35025 -41.89536,-23.93434 -28.04792,-35.42675 7.337,-6.08915 51.45343,-4.62892 70.81397,2.34395 20.80414,7.49281 22.38836,19.28291 3.84675,28.62897 -18.04454,9.09553 -25.61601,9.81895 -46.6128,4.45383 z m 276.23312,-9.3683 c -1.43074,-2.31494 -7.07118,-3.35453 -12.53429,-2.31021 -22.01427,4.20832 -37.7786,-13.94106 -20.90104,-24.06317 6.20238,-3.71982 5.98177,-4.67151 -2.80489,-12.10016 -9.27752,-7.84369 -9.33594,-8.20964 -2.14985,-13.46424 9.62681,-7.03928 19.06957,-6.82247 35.14751,0.80701 9.19822,4.36484 13.08333,8.79417 13.08333,14.91606 0,4.78914 2.59658,10.86253 5.77016,13.49636 3.17358,2.63386 5.77016,7.69274 5.77016,11.24195 0,12.46575 -15.59594,20.83697 -21.38109,11.4764 z m -73.80727,-18.29333 c -10.29644,-2.98256 -31.75489,-20.1113 -31.75489,-25.34765 0,-2.03316 2.07726,-1.61941 4.61613,0.91947 2.53887,2.53885 7.75927,4.61612 11.60087,4.61612 3.84162,0 13.88167,2.15253 22.31123,4.78337 10.23832,3.19536 15.32648,7.02653 15.32648,11.54029 0,6.9945 -6.47026,8.01581 -22.09982,3.4884 z M 151.47528,575.34947 c -11.80011,-14.78892 -11.76091,-16.37397 1.22361,-49.48281 4.09621,-10.44472 12.0528,-33.06944 14.62278,-41.58 1.47142,-4.8727 -0.35735,-7.60212 -6.10014,-9.10387 -4.51091,-1.17959 -8.20163,-5.18859 -8.20163,-8.90879 0,-3.72021 -0.98496,-11.7408 -2.18883,-17.82348 -1.99355,-10.07276 -0.74379,-11.6801 14.00844,-18.01587 21.43964,-9.20791 27.55861,-3.65477 13.88232,12.59862 -5.4964,6.53212 -9.01505,14.42625 -7.81924,17.54256 2.91438,7.5947 6.52042,7.13763 14.66163,-1.8583 3.74515,-4.13836 14.32162,-8.6508 23.50334,-10.02767 22.16685,-3.32411 29.27782,-9.17364 30.06006,-24.72758 0.78432,-15.59506 6.25364,-18.31187 15.74685,-7.82201 8.50045,9.3929 18.28951,9.89896 30.95494,1.60025 8.70034,-5.70067 9.63331,-5.6894 11.8715,0.14311 1.40731,3.66731 -0.58016,9.65537 -4.72459,14.23491 -5.3197,5.8782 -10.24982,7.40232 -19.23031,5.94502 -10.24052,-1.66185 -14.3137,0.33122 -26.79104,13.10915 -10.01812,10.25951 -18.06851,15.06893 -25.22358,15.06893 -5.78004,0 -14.94949,1.6882 -20.37649,3.75156 -8.13546,3.09307 -9.86737,6.24704 -9.86737,17.96923 0,7.81972 -2.7503,17.25675 -6.11179,20.9712 -3.36151,3.71437 -7.50654,12.93737 -9.21116,20.49547 -2.45911,10.90335 -1.58452,15.66777 4.23398,23.06477 7.23591,9.19897 7.2255,9.50551 -0.78573,23.08352 -4.46548,7.5684 -10.11184,13.7607 -12.54753,13.7606 -2.43566,-7e-5 -9.45116,-6.29496 -15.59002,-13.98868 z m 518.93447,-16.78532 c -1.30761,-2.11572 -6.66381,-3.84677 -11.90266,-3.84677 -12.58592,0 -27.5708,-10.14799 -34.35384,-23.26487 -4.28437,-8.28509 -4.45045,-11.39892 -0.76504,-14.34502 9.34844,-7.47319 20.42632,-8.31771 38.29654,-2.9195 15.67914,4.73634 18.95557,4.74529 23.63618,0.0647 8.42167,-8.42172 37.03349,-18.76217 40.98389,-14.81177 1.91906,1.91907 2.23566,14.57649 0.71049,28.4072 l -2.75085,24.94596 -15.38706,0.2258 c -8.46289,0.12425 -19.16813,2.28801 -23.7894,4.80847 -10.21425,5.57079 -11.64574,5.64257 -14.67825,0.73584 z m 202.48691,-2.36857 c -6.52938,-4.57333 -10.00751,-5.08145 -13.16559,-1.92337 -11.16043,11.16042 -43.65565,-1.21059 -39.29219,-14.95865 1.54682,-4.8736 -0.12926,-7.80806 -5.41795,-9.48667 -8.33397,-2.64511 -13.92767,-14.87418 -9.83363,-21.49852 1.40847,-2.27886 5.20168,-3.13004 8.42942,-1.89142 8.32956,3.19636 16.00485,-4.46009 13.61864,-13.58515 -4.29414,-16.42062 27.73242,-25.84465 39.82691,-11.71934 5.19767,6.07047 7.91009,6.53744 17.32708,2.98292 9.96537,-3.76154 12.20861,-3.08838 20.883,6.26657 5.34506,5.7644 12.4467,10.48074 15.78142,10.48074 4.33289,0 5.4384,2.38891 3.874,8.37128 -1.20404,4.60422 0.58437,13.0665 3.97421,18.80507 3.38984,5.73852 5.19756,12.95051 4.01713,16.02662 -1.65049,4.30115 -39.44699,18.34526 -49.37205,18.34526 -0.97725,0 -5.76994,-2.79692 -10.6504,-6.21534 z m -92.69272,-7.05385 c -3.34892,-4.0352 -11.64173,-5.96464 -25.63637,-5.96464 -15.82325,0 -20.6862,-1.35644 -20.6862,-5.77014 0,-4.51248 5.23137,-5.77016 24.00184,-5.77016 24.79537,0 57.77573,10.28561 55.50536,17.31045 -2.13554,6.6077 -27.73761,6.75778 -33.18463,0.19465 z M 645.81023,484.53332 c -1.36585,-3.69185 -11.86457,-13.76141 -23.33056,-22.37678 -15.06998,-11.32333 -23.0437,-14.97258 -28.77298,-13.16805 -7.07397,2.22798 -18.04857,4.48698 -26.1979,5.39246 -1.58679,0.17619 -2.88508,3.43643 -2.88508,7.24473 0,14.26899 -18.26697,21.062 -33.99813,12.64293 -4.06394,-2.17496 -13.47578,-1.93204 -24.7053,0.63764 -15.91032,3.64078 -19.12058,3.26399 -26.11445,-3.0654 -6.82102,-6.17291 -8.48798,-6.40417 -11.52718,-1.59933 -1.95414,3.08945 -3.57953,6.91548 -3.61191,8.50226 -0.11881,5.82219 -18.53719,2.66323 -28.03591,-4.80845 -5.3794,-4.23145 -12.04642,-7.69352 -14.81555,-7.69352 -2.76912,0 -12.44959,-2.83177 -21.51215,-6.29277 -15.43683,-5.89536 -16.47736,-7.22197 -16.47736,-21.00735 0,-26.59499 23.87214,-38.14654 50.44025,-24.40763 11.58624,5.99144 17.42544,6.31523 82.23248,4.55983 l 34.58018,-0.93666 1.98232,-11.54028 c 1.5224,-8.86278 4.26174,-11.80622 11.80696,-12.68651 15.15208,-1.76775 30.52986,5.54321 30.52986,14.5147 0,9.75754 3.11393,9.81827 13.28906,0.25925 7.20828,-6.77183 8.9751,-6.97737 17.55834,-2.04267 5.24901,3.01774 14.30401,7.44087 20.12224,9.82916 5.81824,2.38829 10.76259,6.33684 10.98752,8.77454 0.22504,2.43766 0.65764,7.87001 0.96169,12.07188 0.37929,5.24394 4.08553,8.25976 11.81806,9.61691 8.31876,1.45998 12.02208,4.80845 14.15848,12.80167 1.59122,5.95353 4.90797,13.25227 7.37052,16.21944 8.65534,10.42907 2.07087,15.18632 -21.07862,15.22917 -17.71626,0.0347 -22.80126,-1.33644 -24.77488,-6.67117 z M 79.892646,456.58365 c -7.461574,-7.94249 -11.366426,-9.228 -21.98161,-7.23658 -9.474996,1.77752 -14.913556,0.6068 -20.447893,-4.40169 -8.843103,-8.00289 -9.90911,-17.17123 -1.996594,-17.17123 7.760164,0 11.288566,-7.08796 6.437914,-12.93266 -7.040234,-8.48293 5.238449,-20.70714 23.580321,-23.47581 31.155055,-4.70273 38.273346,-6.69791 35.022336,-9.81612 -1.795947,-1.72255 -7.336257,-3.71122 -12.311877,-4.4193 -7.896295,-1.12373 -9.219677,-3.73303 -10.407777,-20.52125 -1.119155,-15.81427 0.277732,-21.2461 7.857597,-30.55219 7.998618,-9.82033 11.794436,-11.31834 28.679857,-11.31834 15.44059,0 19.46115,-1.29809 19.46115,-6.28323 0,-12.07703 16.0813,-21.66317 37.50596,-22.35752 17.12834,-0.55512 20.1955,0.3975 20.1955,6.27242 0,10.20085 8.91967,27.62998 14.15785,27.66459 2.49747,0.0154 5.09404,-3.86483 5.77014,-8.62522 0.93238,-6.5652 4.15393,-8.93926 13.34108,-9.83151 6.66153,-0.64698 18.09696,1.3244 25.41203,4.38083 7.31513,3.05647 17.88689,4.68037 23.49285,3.60873 18.43393,-3.5239 30.41903,15.1655 12.59419,19.63924 -7.26904,1.82441 -8.7233,4.22456 -7.2451,11.95733 2.23316,11.68189 5.22302,12.19255 11.60014,1.9812 5.21073,-8.34372 12.58107,-9.6847 23.06381,-4.19628 16.21673,8.49055 59.28405,27.27687 62.53166,27.27687 4.20309,0 15.31313,20.32172 15.31313,28.00968 0,2.92112 -4.18823,7.55261 -9.30721,10.29219 -7.18228,3.84386 -12.14374,3.99226 -21.73122,0.65003 -16.24811,-5.66412 -35.4782,-5.51746 -41.31071,0.31506 -6.87025,6.87026 -50.70947,7.09636 -61.05923,0.31505 -11.35754,-7.44173 -21.67373,-3.62723 -26.78057,9.9023 -3.15957,8.37072 -7.31223,11.53538 -17.19572,13.10455 -8.66968,1.37647 -14.45943,0.26119 -17.30102,-3.33265 -2.34899,-2.97086 -9.56166,-5.40152 -16.02819,-5.40152 -6.46654,0 -12.53295,-2.1638 -13.48091,-4.80846 -3.00012,-8.36981 -23.22715,6.70219 -27.96483,20.83777 -2.7384,8.17035 -7.17392,13.24828 -12.22725,13.99804 -4.3615,0.6471 -10.97562,4.54195 -14.69808,8.65522 -9.24599,10.21671 -21.678314,9.38404 -32.541724,-2.17954 z m 613.760364,6.07458 c -2.13595,-3.45604 11.89196,-15.65026 18.00371,-15.65026 6.07412,0 2.74825,11.39945 -4.44983,15.25174 -9.14095,4.89208 -10.74755,4.93933 -13.55388,0.39852 z m 107.79504,-5.07165 c -4.99605,-16.7572 -5.77288,-17.61607 -13.98918,-15.46751 -4.64274,1.21413 -9.27812,5.40738 -10.30087,9.31833 -1.55995,5.96523 -5.75511,7.11086 -26.03855,7.11086 -23.441,0 -24.30255,-0.35466 -28.22752,-11.61363 -3.84546,-11.03108 -4.83951,-11.48722 -19.81415,-9.09264 -13.74404,2.19772 -17.16432,1.18091 -26.67412,-7.93007 -9.69612,-9.28947 -10.83207,-12.87505 -10.22027,-32.26009 0.67591,-21.41624 0.89336,-21.81121 12.07427,-21.93376 8.67805,-0.0949 11.67095,-2.09794 12.58452,-8.42156 1.10782,-7.66845 3.16197,-8.22621 27.11955,-7.36419 28.60602,1.02924 44.66147,8.62948 40.5982,19.21811 -1.62507,4.23487 -0.38859,6.30932 3.76059,6.30932 3.39996,0 6.18172,-1.73105 6.18172,-3.84676 0,-2.11574 5.19313,-3.84677 11.5403,-3.84677 7.23765,0 11.54028,1.97569 11.54028,5.29913 0,2.91451 2.72933,7.56429 6.06521,10.33278 5.05534,4.19559 8.23496,3.86519 19.09698,-1.98443 12.2191,-6.58041 13.64008,-6.61953 22.78555,-0.62718 6.09516,3.9937 9.75373,9.96485 9.75373,15.9191 0,10.22389 3.60615,12.07691 10.35971,5.32334 6.63125,-6.63124 23.97959,6.37418 21.44282,16.07486 -1.76144,6.73577 -0.30082,7.5559 11.98215,6.72865 8.76602,-0.59035 16.29198,1.36179 20.15926,5.22906 5.66362,5.66364 5.05268,6.70184 -7.42915,12.62485 -10.05348,4.77067 -15.52543,5.42344 -20.98238,2.50296 -12.49482,-6.687 -37.18455,-6.30804 -47.22553,0.72496 -10.80645,7.56911 -34.06418,8.6452 -36.14312,1.67228 z M 435.71184,406.8718 c -4.20657,-3.1792 -13.17199,-5.83535 -19.92321,-5.90267 -14.19183,-0.14155 -18.86343,-4.97524 -11.06399,-11.44821 2.9849,-2.47723 6.58928,-11.38306 8.00973,-19.79074 2.50978,-14.85533 1.91484,-15.93613 -21.08397,-38.30113 -23.59821,-22.94794 -23.65912,-23.06435 -21.07899,-40.26996 2.41257,-16.0881 2.00326,-17.25551 -6.0503,-17.25551 -12.65084,0 -34.55004,-14.78167 -34.55004,-23.32074 0,-6.44284 -2.03923,-7.02671 -17.25682,-4.94087 -11.32502,1.55223 -19.24413,0.716 -23.03821,-2.43284 -8.48941,-7.04555 -3.50186,-11.61997 12.66939,-11.61997 10.21411,0 15.63471,-2.24178 19.19135,-7.93688 7.41059,-11.86625 21.00123,-8.30108 25.8788,6.78869 5.67791,17.56585 8.69738,19.10201 13.3732,6.80362 2.25812,-5.93922 6.85331,-12.80775 10.21159,-15.26338 5.08044,-3.71489 5.31136,-5.94948 1.37502,-13.30468 -3.82465,-7.14639 -3.7337,-9.47184 0.47461,-12.13854 6.90614,-4.37625 10.01531,-4.23584 12.99587,0.58677 1.36077,2.20179 5.79907,2.94793 9.86287,1.65815 4.54199,-1.44157 8.18299,-0.27541 9.45019,3.02692 2.76076,7.19436 -4.61969,25.89271 -14.29888,36.22639 -8.09363,8.6409 -6.80857,16.63353 2.6743,16.63353 8.46486,0 14.40864,15.04519 11.98026,30.32504 -2.71459,17.08079 -0.58836,20.5583 17.87353,29.23257 18.91777,8.88849 23.74669,18.09818 24.23901,46.22842 0.22233,12.69432 1.62006,26.54267 3.10637,30.77412 1.56036,4.44211 0.57333,10.59448 -2.33549,14.55783 -4.53757,6.18257 -5.79761,6.29023 -12.68619,1.08407 z m 25.51808,2.03972 c -2.92766,-1.85434 -4.01625,-5.43695 -2.43136,-8.00143 1.57848,-2.55402 0.64362,-8.8036 -2.07744,-13.88798 -6.15432,-11.49945 -2.13026,-16.36002 6.90145,-8.33614 4.96645,4.41229 10.83026,5.32257 22.14247,3.43739 17.79787,-2.96602 21.39393,-13.27768 5.28188,-15.1456 -5.55784,-0.64432 -14.09535,-5.41883 -18.97229,-10.61005 l -8.86705,-9.43858 8.47196,-11.45898 8.47196,-11.45893 -19.04517,-13.68261 -19.04522,-13.68258 5.91724,-14.25632 c 3.25449,-7.84095 8.32748,-15.64058 11.27336,-17.33251 2.94586,-1.69191 5.35612,-5.73103 5.35612,-8.97578 0,-3.24477 2.1638,-5.17913 4.80848,-4.29855 8.27915,2.75665 7.78923,14.79362 -0.93292,22.91952 -10.6515,9.92337 -5.09868,16.31309 11.08721,12.75807 14.4701,-3.17821 17.39703,-7.25305 12.19355,-16.97582 -3.6297,-6.78215 -2.56327,-7.44013 12.32411,-7.60335 8.96373,-0.0983 19.75976,-0.6878 23.99119,-1.31006 12.93372,-1.90192 8.84829,10.06902 -4.80844,14.08953 -6.87611,2.02433 -12.50199,6.11184 -12.50199,9.08334 0,4.09499 3.27109,4.7891 13.51391,2.86754 10.17061,-1.90804 14.06338,-1.10331 15.73499,3.25289 1.57631,4.10777 5.47038,5.13829 13.41343,3.54965 8.74036,-1.74805 11.19236,-0.84814 11.19236,4.10772 0,9.6528 -14.48156,13.16209 -45.23499,10.96171 -18.54117,-1.32659 -27.85353,-0.6099 -27.85353,2.14372 0,2.27513 1.8324,5.26911 4.07199,6.65321 2.33584,1.44365 3.02557,7.28081 1.61772,13.69072 -2.0104,9.15329 -1.18154,11.17739 4.58324,11.19247 8.72322,0.0231 35.88822,24.43841 35.88822,32.25596 0,3.15657 -1.88184,6.9023 -4.1819,8.32379 -2.3,1.42148 -3.37772,5.65966 -2.39486,9.4181 3.16206,12.0917 -2.18212,15.76032 -15.58749,10.70035 -10.11541,-3.81814 -14.45253,-3.48827 -25.8976,1.96953 -15.44091,7.36323 -20.73579,7.93736 -28.40459,3.08006 z m 151.45131,-76.90506 c -15.18806,-1.86269 -21.89871,-5.12244 -31.7358,-15.416 -13.54584,-14.17444 -15.0388,-19.35044 -7.69865,-26.69066 3.8039,-3.80387 3.60811,-5.51487 -0.96169,-8.40398 -3.15588,-1.9952 -10.55268,-3.65415 -16.43731,-3.6866 -12.06177,-0.0666 -17.69572,-9.25121 -11.56498,-18.85387 2.53174,-3.96558 9.35498,-6.20898 18.8843,-6.20898 13.72468,0 14.84006,-0.79355 13.91895,-9.90293 -0.76217,-7.53718 2.63,-12.82114 14.19979,-22.11889 16.99734,-13.65944 21.84203,-14.56361 32.96273,-6.15185 5.30037,4.0092 12.0858,5.07858 21.8138,3.43784 12.6794,-2.13856 14.24954,-1.46915 15.38708,6.5602 1.18132,8.33887 2.73577,8.85444 23.05189,7.64637 18.18232,-1.08124 23.14686,0.0663 30.01922,6.93859 4.5287,4.52874 11.17034,7.86587 14.75912,7.41584 10.54223,-1.32194 26.95657,4.50537 29.20659,10.36877 1.14452,2.9826 6.33011,5.42297 11.52347,5.42297 5.19337,0 14.33571,4.07046 20.31623,9.04539 5.98058,4.97499 14.8738,11.15085 19.76274,13.72414 4.88894,2.5733 8.26548,6.54918 7.50345,8.83524 -0.76205,2.28614 -10.23098,8.06033 -21.04204,12.83155 -17.65104,7.78994 -20.71817,8.12422 -30.06207,3.27657 -15.03851,-7.80208 -27.78165,-6.84725 -30.68462,2.29912 -3.11503,9.81461 -10.87503,13.74523 -33.66317,17.05118 -17.47821,2.53563 -18.4559,2.18207 -22.35956,-8.08524 -4.01036,-10.54806 -9.93948,-16.4882 -16.57379,-16.60464 -1.84586,-0.0307 -1.51213,2.16294 0.74162,4.87857 2.25378,2.71564 2.89849,6.71082 1.43273,8.87819 -4.71625,6.97379 -21.50787,16.97501 -27.56327,16.41684 -3.23174,-0.29775 -14.54327,-1.60457 -25.13676,-2.90373 z M 417.16442,302.11317 c -4.08835,-4.08831 -2.96992,-18.57194 1.80263,-23.34452 3.25841,-3.2584 1.1508,-8.42818 -8.30115,-20.3623 -10.22806,-12.91394 -11.62508,-16.65558 -7.25227,-19.42387 2.97885,-1.8858 7.23373,-3.45523 9.45523,-3.48767 5.71248,-0.0835 13.27133,8.18631 13.27133,14.51924 0,2.94024 3.89485,8.51535 8.65522,12.38919 8.44816,6.87483 8.49416,7.31794 1.92338,18.52059 -3.70251,6.31248 -6.73183,14.23945 -6.73183,17.61553 0,6.15252 -8.01105,8.38529 -12.82254,3.57381 z m 70.524,-48.64716 c -7.40501,-2.34583 -16.32789,-7.77996 -19.82858,-12.07588 -6.18204,-7.58636 -6.58854,-7.60835 -14.14968,-0.76561 -14.07194,12.73494 -34.63854,-1.58652 -38.76883,-26.99647 -1.76931,-10.88513 -5.28857,-15.76432 -15.47488,-21.45498 -12.41323,-6.93477 -14.10069,-7.00501 -28.83808,-1.20019 l -15.65332,6.16559 -10.60835,-12.58708 c -9.57427,-11.3602 -10.99896,-11.93091 -14.61651,-5.85524 -2.2045,3.70251 -5.73683,6.73182 -7.84963,6.73182 -2.1128,0 -10.57491,3.25326 -18.80468,7.22947 -14.19816,6.85982 -15.95766,6.90528 -34.41164,0.88933 -22.52008,-7.34146 -34.48952,-20.47909 -26.94279,-29.5724 3.78441,-4.5599 3.7751,-7.57722 -0.0452,-14.71616 -7.72341,-14.43138 -3.82272,-23.17907 11.38358,-25.52852 9.42592,-1.45635 16.15034,-0.027 22.59398,4.80845 12.09467,9.07286 15.16771,8.69745 20.25821,-2.475 2.34484,-5.14632 9.23561,-11.41651 15.3129,-13.93378 9.35332,-3.87433 13.96282,-3.32369 30.02653,3.58676 10.43731,4.48997 21.50014,8.16362 24.5841,8.16362 6.41977,0 10.27704,-8.03145 10.27704,-21.39849 0,-10.076538 3.21378,-11.344918 37.19899,-14.681378 17.09245,-1.678078 21.14855,-0.709038 28.85075,6.89257 5.43683,5.365878 13.887,8.962148 21.48216,9.142558 6.88599,0.16349 15.23208,3.00951 18.5469,6.32429 3.31481,3.31481 9.52741,6.02694 13.80584,6.02694 4.54374,0 8.61558,3.19967 9.79076,7.69351 1.41285,5.40264 5.24707,7.69354 12.87651,7.69354 5.97557,0 12.03056,1.8865 13.45554,4.19224 1.55489,2.51579 7.75591,3.22329 15.50695,1.76918 15.20991,-2.85338 34.48363,5.61695 38.0015,16.70075 1.6551,5.2148 7.05942,7.94578 18.54474,9.37131 40.35017,5.00805 62.24731,15.33401 59.79838,28.19889 -1.1429,6.00398 -6.17972,7.37971 -32.98527,9.00938 -27.24609,1.65647 -32.4761,3.12452 -37.68717,10.57861 -6.85914,9.81156 -13.08766,10.62393 -31.2104,4.07065 -15.37621,-5.5601 -20.34867,-1.95588 -11.21919,8.13211 4.30579,4.75786 5.82227,10.31527 4.20509,15.41062 -1.97551,6.22416 -5.73881,7.96921 -17.18615,7.96921 -8.33545,0 -16.7222,2.48863 -19.44564,5.77014 -5.47497,6.59698 -11.75732,6.74387 -30.77411,0.71964 z m -313.43364,-2.51735 c -1.59967,-2.58833 -0.79431,-8.65638 1.78963,-13.4846 3.86295,-7.21796 3.5863,-10.47547 -1.55633,-18.32407 -5.49253,-8.38268 -5.56346,-10.11899 -0.58224,-14.25303 3.19174,-2.64891 9.23792,-3.57584 13.826,-2.1196 5.30427,1.6835 10.75162,0.23696 15.5873,-4.13931 6.22471,-5.63328 9.06477,-5.98394 17.4653,-2.15642 7.31873,3.33464 11.4097,3.42731 15.12652,0.34275 3.74987,-3.11212 11.25182,-2.5006 28.42019,2.31658 20.12755,5.64753 23.3255,7.79382 23.3255,15.65483 0,5.01049 -1.73102,9.11 -3.84674,9.11 -2.11573,0 -3.84677,3.4012 -3.84677,7.5582 0,11.76562 -13.11847,16.84072 -28.8381,11.15642 -11.35767,-4.107 -14.19593,-3.86873 -20.35929,1.70905 -9.19443,8.32084 -52.33761,13.38199 -56.51097,6.62934 z"
       style="fill:#000000" />
  </g>
  <g
     inkscape:groupmode="layer"
     id="layer2"
     inkscape:label="Fonts">
    <flowRoot
       xml:space="preserve"
       id="flowRoot3017"
       style="font-size:800px;font-style:normal;font-weight:bold;text-align:center;text-anchor:middle;fill:#000000;fill-opacity:1;stroke:#ffffff;font-family:Linux Biolinum;-inkscape-font-specification:Linux Biolinum;stroke-opacity:1;stroke-width:7.08700868;stroke-miterlimit:4;stroke-dasharray:none;filter:url(#filter3845)"
       transform="matrix(1.4999165,0,0,1.4999165,-259.07514,-267.40824)"><flowRegion
         id="flowRegion3019"><rect
           id="rect3021"
           width="1064.2858"
           height="1062.8572"
           x="0"
           y="0.13492201"
           style="font-size:800px;text-align:center;text-anchor:middle;font-family:Linux Biolinum;-inkscape-font-specification:Linux Biolinum;font-weight:bold;stroke:#ffffff;stroke-opacity:1;stroke-width:7.08700868;stroke-miterlimit:4;stroke-dasharray:none" /></flowRegion><flowPara
         id="flowPara3023">S</flowPara></flowRoot>  </g>
</svg>
